<svg width="34" height="39" viewBox="0 0 34 39" fill="none" xmlns="http://www.w3.org/2000/svg">
<path fill-rule="evenodd" clip-rule="evenodd" d="M24.48 0C20.7245 0 17.68 3.04448 17.68 6.8V9.52C17.68 13.2755 20.7245 16.32 24.48 16.32H27.2C30.9555 16.32 34 13.2755 34 9.52V6.8C34 3.04448 30.9555 0 27.2 0H24.48ZM25.84 12.24C28.0933 12.24 29.92 10.4133 29.92 8.16C29.92 5.90667 28.0933 4.08 25.84 4.08C23.5867 4.08 21.76 5.90667 21.76 8.16C21.76 10.4133 23.5867 12.24 25.84 12.24Z" fill="#EEB83F"/>
<path fill-rule="evenodd" clip-rule="evenodd" d="M6.8 17.68C3.04448 17.68 0 20.7245 0 24.48V27.2C0 30.9555 3.04448 34 6.8 34H9.52C13.2755 34 16.32 30.9555 16.32 27.2V24.48C16.32 20.7245 13.2755 17.68 9.52 17.68H6.8ZM8.16 29.92C10.4133 29.92 12.24 28.0933 12.24 25.84C12.24 23.5867 10.4133 21.76 8.16 21.76C5.90667 21.76 4.08 23.5867 4.08 25.84C4.08 28.0933 5.90667 29.92 8.16 29.92Z" fill="#EEB83F"/>
<path fill-rule="evenodd" clip-rule="evenodd" d="M0 6.8C0 3.04448 3.04448 0 6.8 0H9.52C13.2755 0 16.32 3.04448 16.32 6.8V8.16H12.24C12.24 5.90667 10.4133 4.08 8.16 4.08C5.90667 4.08 4.08 5.90667 4.08 8.16C4.08 10.4133 5.90667 12.24 8.16 12.24C9.79619 12.24 11.2074 11.2769 11.8577 9.88664L16.0407 11.4552C15.2071 14.268 12.6032 16.32 9.52 16.32H6.8C3.04448 16.32 0 13.2755 0 9.52V6.8Z" fill="#EEB83F"/>
<path fill-rule="evenodd" clip-rule="evenodd" d="M24.48 17.68C20.9584 17.68 18.0621 20.3569 17.7149 23.7869L17.68 23.8V24.4699L17.68 24.48V27.2L17.68 27.2101V38.08H23.12V36.72V33.864V28.8811V27.2V22.7989C23.8418 22.1528 24.795 21.76 25.84 21.76C28.0933 21.76 29.92 23.5867 29.92 25.84C29.92 28.0933 28.0933 29.92 25.84 29.92C25.6032 29.92 25.371 29.8998 25.1453 29.8611L26.18 34H27.2C30.9555 34 34 30.9555 34 27.2V24.48C34 20.7245 30.9555 17.68 27.2 17.68H24.48Z" fill="#EEB83F"/>
</svg>
