<?xml version="1.0" encoding="utf-8"?>
<svg viewBox="0 0 500 500" xmlns="http://www.w3.org/2000/svg">
  <path fill-rule="evenodd" clip-rule="evenodd" fill="#EABD67" d="M 0.229 -0.346 C 266.869 -0.346 533.588 -0.346 800.229 -0.346 C 800.229 17.23 800.229 677.486 800.229 695.063 C 798.25 694.723 797.039 693.021 794.729 693.71 C 792.656 694.33 790.331 698.221 786.729 696.415 C 785.366 695.731 785.784 694.33 783.729 693.71 C 778.84 702.393 765.942 701.07 757.229 698.443 C 751.908 696.838 749.433 702.087 745.229 700.471 C 743.085 699.648 742.459 695.963 740.229 697.091 C 737.381 698.086 737.275 700.274 733.229 700.471 C 732.849 699.837 729.086 695.24 728.729 695.063 C 726.145 693.781 722.167 696.399 720.229 694.387 C 719.464 693.593 718.247 690.088 717.729 688.978 C 714.391 691.677 704.864 695.345 698.729 693.034 C 696.45 692.176 695.202 687.604 691.729 688.978 C 691.229 689.654 690.729 690.33 690.229 691.006 C 686.563 691.006 682.895 691.006 679.229 691.006 C 676.875 691.938 672.338 694.268 670.229 695.063 C 667.729 694.612 665.229 694.161 662.729 693.71 C 658.69 695.522 658.944 700.31 651.729 700.471 C 649.532 696.403 647.656 698.543 643.229 697.091 C 642.991 697.012 642.247 695.625 641.729 695.739 C 640.459 696.017 639.696 698.584 637.229 697.767 C 634.773 696.954 633.208 693.124 631.229 692.358 C 628.771 691.408 625.276 693.94 622.729 691.682 C 621.446 690.544 620.179 687.155 618.729 686.274 C 617.063 686.048 615.395 685.823 613.729 685.598 C 613.063 684.696 612.395 683.795 611.729 682.893 C 609.621 682.117 609.305 684.446 608.229 684.921 C 605.729 684.921 603.229 684.921 600.729 684.921 C 599.516 685.424 598.405 687.542 596.229 686.95 C 593.752 686.276 592.877 683.15 591.229 682.217 C 588.729 682.443 586.229 682.667 583.729 682.893 C 583.076 682.676 581.184 681.006 580.729 680.865 C 578.233 680.094 574.258 682.831 572.729 683.569 C 570.396 683.569 568.062 683.569 565.729 683.569 C 562.345 684.923 557.648 685.038 554.229 686.274 C 551.229 686.499 548.229 686.724 545.229 686.95 C 543.153 688.045 539.895 690.909 537.729 691.682 C 533.142 693.32 523.671 685.566 520.229 686.274 C 511.678 688.031 505.034 693.97 497.229 695.739 C 492.657 696.774 488.524 692.076 483.229 694.387 C 480.434 695.606 479.54 697.655 475.229 697.767 C 475.147 697.618 460.901 685.667 460.729 685.598 C 458.153 684.56 451.079 687.13 447.229 686.274 C 445.485 685.886 446.063 683.527 443.729 684.245 C 443.229 684.921 442.729 685.598 442.229 686.274 C 438.229 686.274 434.229 686.274 430.229 686.274 C 429.729 687.176 429.229 688.076 428.729 688.978 C 426.086 691.171 421.856 689.997 419.229 688.978 C 416.563 688.978 413.895 688.978 411.229 688.978 C 408.381 687.758 397.557 682.607 395.229 687.626 C 394.054 689.691 394.31 692.247 393.729 693.71 C 393.139 694.253 392.888 694.234 391.729 694.387 C 389.529 691.517 383.83 696.804 381.729 695.739 C 380.258 694.992 380.182 693.182 377.229 693.034 C 377.229 693.485 377.229 693.936 377.229 694.387 C 377.605 695.111 377.53 695.026 377.729 696.415 C 376.705 696.896 375.392 697.087 373.729 697.091 C 373.156 696.106 372.728 695.603 372.229 694.387 C 368.566 698.296 355.829 704.363 348.229 701.147 C 346.608 700.462 346.545 697.559 343.729 698.443 C 343.396 698.893 343.062 699.345 342.729 699.795 C 338.563 699.569 334.395 699.345 330.229 699.119 C 328.724 699.942 324.662 703.818 321.229 702.499 C 320.729 701.823 320.229 701.147 319.729 700.471 C 317.229 700.245 314.729 700.021 312.229 699.795 C 311.729 699.119 311.229 698.443 310.729 697.767 C 308.043 696.353 305.547 697.745 303.229 696.415 C 301.587 695.472 300.608 693.063 298.729 692.358 C 294.563 692.132 290.395 691.908 286.229 691.682 C 285.278 691.3 284.366 689.336 283.729 688.978 C 280.896 688.978 278.062 688.978 275.229 688.978 C 273.685 691.632 268.653 696.048 266.229 697.091 C 261.229 696.865 256.229 696.641 251.229 696.415 C 250.896 697.091 250.562 697.767 250.229 698.443 C 244.375 702.026 235.768 693.989 232.229 691.682 C 229.688 690.026 228.569 693.773 226.229 693.034 C 222.89 691.982 218.819 688.075 214.729 687.626 C 211.088 694.492 206.162 687.96 201.229 686.95 C 196.332 685.946 192.933 693.399 187.229 690.33 C 184.597 688.913 180.825 684.367 175.729 686.274 C 172.575 687.454 169.457 691.839 166.229 693.034 C 163.314 694.113 160.352 691.663 158.229 691.006 C 152.582 689.258 149.796 694.585 145.229 693.034 C 143.187 692.341 141.949 689.9 140.229 688.978 C 137.643 687.592 135.622 688 133.229 686.274 C 132.562 685.372 131.896 684.471 131.229 683.569 C 127.229 683.569 123.229 683.569 119.229 683.569 C 118.441 683.21 117.518 681.223 116.729 680.865 C 114.441 679.825 100.937 679.894 99.229 680.865 C 97.946 681.594 95.508 684.271 93.729 684.921 C 91.123 685.875 90.216 683.786 87.729 683.569 C 86.744 685.714 85.452 687.199 84.229 688.978 C 78.687 689.05 73.523 688.142 69.229 687.626 C 68.174 689.949 67.54 690.879 64.729 691.006 C 63.716 689.573 63.258 689.215 61.229 688.978 C 60.243 690.903 59.723 691.016 57.229 691.006 C 55.236 688.346 53.586 690.317 50.229 688.978 C 48.376 688.24 43.017 682.223 40.229 683.569 C 39.575 683.884 38.211 686.086 37.229 686.274 C 34.7 686.758 33.408 681.451 30.229 683.569 C 26.341 686.16 23.515 691.213 18.229 691.682 C 11.507 683.596 5.442 693.091 0.229 694.387 C 0.229 677.036 0.229 17.005 0.229 -0.346 Z" style="transform-origin: 400.229px 351.212px;" transform="matrix(-1, 0, 0, -1, -0.000061035156, -0.000061035156)"/>
</svg>