<?xml version="1.0" encoding="utf-8"?>
<svg viewBox="0 0 500 500" xmlns="http://www.w3.org/2000/svg">
  <path fill-rule="evenodd" clip-rule="evenodd" fill="#EABD67" d="M -47.999 48.067 C 218.641 48.067 485.36 48.067 752.001 48.067 C 752.001 65.643 752.001 725.899 752.001 743.476 C 750.022 743.136 748.811 741.434 746.501 742.123 C 744.428 742.743 742.103 746.634 738.501 744.828 C 737.138 744.144 737.556 742.743 735.501 742.123 C 730.612 750.806 717.714 749.483 709.001 746.856 C 703.68 745.251 701.205 750.5 697.001 748.884 C 694.857 748.061 694.231 744.376 692.001 745.504 C 689.153 746.499 689.047 748.687 685.001 748.884 C 684.621 748.25 680.858 743.653 680.501 743.476 C 677.917 742.194 673.939 744.812 672.001 742.8 C 671.236 742.006 670.019 738.501 669.501 737.391 C 666.163 740.09 656.636 743.758 650.501 741.447 C 648.222 740.589 646.974 736.017 643.501 737.391 C 643.001 738.067 642.501 738.743 642.001 739.419 C 638.335 739.419 634.667 739.419 631.001 739.419 C 628.647 740.351 624.11 742.681 622.001 743.476 C 619.501 743.025 617.001 742.574 614.501 742.123 C 610.462 743.935 610.716 748.723 603.501 748.884 C 601.304 744.816 599.428 746.956 595.001 745.504 C 594.763 745.425 594.019 744.038 593.501 744.152 C 592.231 744.43 591.468 746.997 589.001 746.18 C 586.545 745.367 584.98 741.537 583.001 740.771 C 580.543 739.821 577.048 742.353 574.501 740.095 C 573.218 738.957 571.951 735.568 570.501 734.687 C 568.835 734.461 567.167 734.236 565.501 734.011 C 564.835 733.109 564.167 732.208 563.501 731.306 C 561.393 730.53 561.077 732.859 560.001 733.334 C 557.501 733.334 555.001 733.334 552.501 733.334 C 551.288 733.837 550.177 735.955 548.001 735.363 C 545.524 734.689 544.649 731.563 543.001 730.63 C 540.501 730.856 538.001 731.08 535.501 731.306 C 534.848 731.089 532.956 729.419 532.501 729.278 C 530.005 728.507 526.03 731.244 524.501 731.982 C 522.168 731.982 519.834 731.982 517.501 731.982 C 514.117 733.336 509.42 733.451 506.001 734.687 C 503.001 734.912 500.001 735.137 497.001 735.363 C 494.925 736.458 491.667 739.322 489.501 740.095 C 484.914 741.733 475.443 733.979 472.001 734.687 C 463.45 736.444 456.806 742.383 449.001 744.152 C 444.429 745.187 440.296 740.489 435.001 742.8 C 432.206 744.019 431.312 746.068 427.001 746.18 C 426.919 746.031 412.673 734.08 412.501 734.011 C 409.925 732.973 402.851 735.543 399.001 734.687 C 397.257 734.299 397.835 731.94 395.501 732.658 C 395.001 733.334 394.501 734.011 394.001 734.687 C 390.001 734.687 386.001 734.687 382.001 734.687 C 381.501 735.589 381.001 736.489 380.501 737.391 C 377.858 739.584 373.628 738.41 371.001 737.391 C 368.335 737.391 365.667 737.391 363.001 737.391 C 360.153 736.171 349.329 731.02 347.001 736.039 C 345.826 738.104 346.082 740.66 345.501 742.123 C 344.911 742.666 344.66 742.647 343.501 742.8 C 341.301 739.93 335.602 745.217 333.501 744.152 C 332.03 743.405 331.954 741.595 329.001 741.447 C 329.001 741.898 329.001 742.349 329.001 742.8 C 329.377 743.524 329.302 743.439 329.501 744.828 C 328.477 745.309 327.164 745.5 325.501 745.504 C 324.928 744.519 324.5 744.016 324.001 742.8 C 320.338 746.709 307.601 752.776 300.001 749.56 C 298.38 748.875 298.317 745.972 295.501 746.856 C 295.168 747.306 294.834 747.758 294.501 748.208 C 290.335 747.982 286.167 747.758 282.001 747.532 C 280.496 748.355 276.434 752.231 273.001 750.912 C 272.501 750.236 272.001 749.56 271.501 748.884 C 269.001 748.658 266.501 748.434 264.001 748.208 C 263.501 747.532 263.001 746.856 262.501 746.18 C 259.815 744.766 257.319 746.158 255.001 744.828 C 253.359 743.885 252.38 741.476 250.501 740.771 C 246.335 740.545 242.167 740.321 238.001 740.095 C 237.05 739.713 236.138 737.749 235.501 737.391 C 232.668 737.391 229.834 737.391 227.001 737.391 C 225.457 740.045 220.425 744.461 218.001 745.504 C 213.001 745.278 208.001 745.054 203.001 744.828 C 202.668 745.504 202.334 746.18 202.001 746.856 C 196.147 750.439 187.54 742.402 184.001 740.095 C 181.46 738.439 180.341 742.186 178.001 741.447 C 174.662 740.395 170.591 736.488 166.501 736.039 C 162.86 742.905 157.934 736.373 153.001 735.363 C 148.104 734.359 144.705 741.812 139.001 738.743 C 136.369 737.326 132.597 732.78 127.501 734.687 C 124.347 735.867 121.229 740.252 118.001 741.447 C 115.086 742.526 112.124 740.076 110.001 739.419 C 104.354 737.671 101.568 742.998 97.001 741.447 C 94.959 740.754 93.721 738.313 92.001 737.391 C 89.415 736.005 87.394 736.413 85.001 734.687 C 84.334 733.785 83.668 732.884 83.001 731.982 C 79.001 731.982 75.001 731.982 71.001 731.982 C 70.213 731.623 69.29 729.636 68.501 729.278 C 66.213 728.238 52.709 728.307 51.001 729.278 C 49.718 730.007 47.28 732.684 45.501 733.334 C 42.895 734.288 41.988 732.199 39.501 731.982 C 38.516 734.127 37.224 735.612 36.001 737.391 C 30.459 737.463 25.295 736.555 21.001 736.039 C 19.946 738.362 19.312 739.292 16.501 739.419 C 15.488 737.986 15.03 737.628 13.001 737.391 C 12.015 739.316 11.495 739.429 9.001 739.419 C 7.008 736.759 5.358 738.73 2.001 737.391 C 0.148 736.653 -5.211 730.636 -7.999 731.982 C -8.653 732.297 -10.017 734.499 -10.999 734.687 C -13.528 735.171 -14.82 729.864 -17.999 731.982 C -21.887 734.573 -24.713 739.626 -29.999 740.095 C -36.721 732.009 -42.786 741.504 -47.999 742.8 C -47.999 725.449 -47.999 65.418 -47.999 48.067 Z" style="transform-origin: 352.001px 399.625px;" transform="matrix(0, 1, -1, 0, 0, -0.000019073486)"/>
</svg>